<?xml version="1.0" encoding="utf-8"?>
<!-- Generator: Adobe Illustrator 24.0.0, SVG Export Plug-In . SVG Version: 6.00 Build 0)  -->
<svg version="1.1" id="Layer_1" xmlns="http://www.w3.org/2000/svg" xmlns:xlink="http://www.w3.org/1999/xlink" x="0px" y="0px"
	 viewBox="0 0 500 500" style="enable-background:new 0 0 500 500;" xml:space="preserve">
<style type="text/css">
	.st0{fill:#C1272D;stroke:#000000;stroke-width:35;stroke-miterlimit:10;}
</style>
<path class="st0" d="M348.22,286.02h80.67c5.84,0,10.58-3.69,10.58-8.24V82.91c0-4.55-4.74-8.24-10.58-8.24h-80.67
	c-5.84,0-10.58,3.69-10.58,8.24v194.86C337.64,282.33,342.38,286.02,348.22,286.02z"/>
<path class="st0" d="M61.91,233.53c0.85,2.86,9.44,16.19,8.06,18.84c-8.82,16.96-16,62,57.32,64.19h38.43
	c0.72,0,28.9-1.4,30.14,12.45c0.61,6.86-0.77,10.25-3.36,14.9c-15.04,26.98-53.1,99-10.13,132.26c4.87,3.77,13.78,5.65,19.77,4.25
	c11.08-2.59,25.33-6.55,34.33-32.55c7.06-20.4,16-45,35-70c11.11-14.62,37.5-61.5,66.5-122.73l0-160.21
	c-31-26.56-207.11-39.56-246-14.56c-14,9-3,29-10,39c-9.87,14.09-17.2,35.04-5,63C78.37,185.57,52.97,203.37,61.91,233.53z"/>
</svg>
