<?xml version="1.0" encoding="utf-8"?>
<!-- Generator: Adobe Illustrator 24.0.0, SVG Export Plug-In . SVG Version: 6.00 Build 0)  -->
<svg version="1.1" id="Layer_1" xmlns="http://www.w3.org/2000/svg" xmlns:xlink="http://www.w3.org/1999/xlink" x="0px" y="0px"
	 viewBox="0 0 500 500" style="enable-background:new 0 0 500 500;" xml:space="preserve">
<style type="text/css">
	.st0{fill:#009245;stroke:#000000;stroke-width:35;stroke-miterlimit:10;}
</style>
<path class="st0" d="M151.25,213.85H70.58c-5.84,0-10.58,3.69-10.58,8.24v194.86c0,4.55,4.74,8.24,10.58,8.24h80.67
	c5.84,0,10.58-3.69,10.58-8.24V222.1C161.83,217.54,157.1,213.85,151.25,213.85z"/>
<path class="st0" d="M437.56,266.34c-0.85-2.86-9.44-16.19-8.06-18.84c8.82-16.96,16-62-57.32-64.19h-38.43
	c-0.72,0-28.9,1.4-30.14-12.45c-0.61-6.86,0.77-10.25,3.36-14.9c15.04-26.98,53.1-99,10.13-132.26c-4.87-3.77-13.78-5.65-19.77-4.25
	C286.26,22.03,272,26,263,52c-7.06,20.4-16,45-35,70c-11.11,14.62-37.5,61.5-66.5,122.73l0,160.21c31,26.56,207.11,39.56,246,14.56
	c14-9,3-29,10-39c9.87-14.09,17.2-35.04,5-63C421.1,314.3,446.5,296.5,437.56,266.34z"/>
</svg>
